{"accessors" : [{"bufferView" : 0, "byteOffset" : 0, "componentType" : 5123, "count" : 216096, "type" : "SCALAR", "max" : [36090], "min" : [0]}, {"bufferView" : 1, "byteOffset" : 0, "componentType" : 5126, "count" : 36091, "type" : "VEC3", "max" : [0.3078444004058838, 0.43702852725982666, 0.2227926254272461], "min" : [-0.3010181188583374, -0.47476935386657715, -0.18751084804534912], "name" : "POSITION"}], "asset" : {"generator" : "Aspose.3D 24.4.0", "version" : "2.0"}, "buffers" : [{"uri" : "buffer.bin", "byteLength" : 865292}], "bufferViews" : [{"buffer" : 0, "byteOffset" : 0, "byteLength" : 432192, "target" : 34963}, {"buffer" : 0, "byteOffset" : 432196, "byteLength" : 433092, "byteStride" : 12, "target" : 34962}], "meshes" : [{"primitives" : [{"attributes" : {"POSITION" : 1}, "indices" : 0, "mode" : 4}], "name" : ""}], "nodes" : [{"mesh" : 0, "name" : ""}], "scene" : 0, "scenes" : [{"nodes" : [0]}]}